<svg width="91" height="35" viewBox="0 0 91 35" fill="none" xmlns="http://www.w3.org/2000/svg">
<path d="M8.38263 0.735999V27.76H21.3426L20.5266 34H0.510625V0.735999H8.38263ZM49.3893 22.96C49.3893 25.232 48.8933 27.264 47.9012 29.056C46.9413 30.848 45.4853 32.256 43.5333 33.28C41.5813 34.304 39.1973 34.816 36.3813 34.816C32.1573 34.816 28.9413 33.744 26.7333 31.6C24.5253 29.456 23.4213 26.576 23.4213 22.96V0.735999H31.2933V22.624C31.2933 24.768 31.6933 26.368 32.4933 27.424C33.3253 28.448 34.6213 28.96 36.3813 28.96C38.1733 28.96 39.4693 28.448 40.2693 27.424C41.1013 26.368 41.5173 24.768 41.5173 22.624V0.735999H49.3893V22.96ZM63.0389 0.735999V34H55.1669V0.735999H63.0389ZM90.6854 0.735999V6.688L76.2374 27.712H90.9254L90.1574 34H66.9734V28.096L81.7094 6.832H68.4614V0.735999H90.6854Z" fill="#141414"/>
</svg>
